<svg class="main-svg" xmlns="http://www.w3.org/2000/svg" xmlns:xlink="http://www.w3.org/1999/xlink" width="900" height="500" viewBox="0 0 900 500"><rect x="0" y="0" width="900" height="500" style="fill: rgb(255, 255, 255); fill-opacity: 1;"/><defs id="defs-dfa56a"><g class="clips"><clipPath id="clipdfa56axyplot" class="plotclip"><rect width="682" height="320"/></clipPath><clipPath class="axesclip" id="clipdfa56ax"><rect x="80" y="0" width="682" height="500"/></clipPath><clipPath class="axesclip" id="clipdfa56ay"><rect x="0" y="100" width="900" height="320"/></clipPath><clipPath class="axesclip" id="clipdfa56axy"><rect x="80" y="100" width="682" height="320"/></clipPath></g><g class="gradients"/></defs><g class="bglayer"><rect class="bg" x="80" y="100" width="682" height="320" style="fill: rgb(229, 236, 246); fill-opacity: 1; stroke-width: 0;"/></g><g class="layer-below"><g class="imagelayer"/><g class="shapelayer"/></g><g class="cartesianlayer"><g class="subplot xy"><g class="layer-subplot"><g class="shapelayer"/><g class="imagelayer"/></g><g class="gridlayer"><g class="x"><path class="xgrid crisp" transform="translate(216.4,0)" d="M0,100v320" style="stroke: rgb(255, 255, 255); stroke-opacity: 1; stroke-width: 1px;"/><path class="xgrid crisp" transform="translate(352.8,0)" d="M0,100v320" style="stroke: rgb(255, 255, 255); stroke-opacity: 1; stroke-width: 1px;"/><path class="xgrid crisp" transform="translate(489.2,0)" d="M0,100v320" style="stroke: rgb(255, 255, 255); stroke-opacity: 1; stroke-width: 1px;"/><path class="xgrid crisp" transform="translate(625.6,0)" d="M0,100v320" style="stroke: rgb(255, 255, 255); stroke-opacity: 1; stroke-width: 1px;"/></g><g class="y"><path class="ygrid crisp" transform="translate(0,411.3)" d="M80,0h682" style="stroke: rgb(255, 255, 255); stroke-opacity: 1; stroke-width: 1px;"/><path class="ygrid crisp" transform="translate(0,388.85)" d="M80,0h682" style="stroke: rgb(255, 255, 255); stroke-opacity: 1; stroke-width: 1px;"/><path class="ygrid crisp" transform="translate(0,366.4)" d="M80,0h682" style="stroke: rgb(255, 255, 255); stroke-opacity: 1; stroke-width: 1px;"/><path class="ygrid crisp" transform="translate(0,336.71000000000004)" d="M80,0h682" style="stroke: rgb(255, 255, 255); stroke-opacity: 1; stroke-width: 1px;"/><path class="ygrid crisp" transform="translate(0,314.26)" d="M80,0h682" style="stroke: rgb(255, 255, 255); stroke-opacity: 1; stroke-width: 1px;"/><path class="ygrid crisp" transform="translate(0,291.81)" d="M80,0h682" style="stroke: rgb(255, 255, 255); stroke-opacity: 1; stroke-width: 1px;"/><path class="ygrid crisp" transform="translate(0,262.13)" d="M80,0h682" style="stroke: rgb(255, 255, 255); stroke-opacity: 1; stroke-width: 1px;"/><path class="ygrid crisp" transform="translate(0,239.67)" d="M80,0h682" style="stroke: rgb(255, 255, 255); stroke-opacity: 1; stroke-width: 1px;"/><path class="ygrid crisp" transform="translate(0,217.22)" d="M80,0h682" style="stroke: rgb(255, 255, 255); stroke-opacity: 1; stroke-width: 1px;"/><path class="ygrid crisp" transform="translate(0,187.54000000000002)" d="M80,0h682" style="stroke: rgb(255, 255, 255); stroke-opacity: 1; stroke-width: 1px;"/><path class="ygrid crisp" transform="translate(0,165.07999999999998)" d="M80,0h682" style="stroke: rgb(255, 255, 255); stroke-opacity: 1; stroke-width: 1px;"/><path class="ygrid crisp" transform="translate(0,142.63)" d="M80,0h682" style="stroke: rgb(255, 255, 255); stroke-opacity: 1; stroke-width: 1px;"/><path class="ygrid crisp" transform="translate(0,112.95)" d="M80,0h682" style="stroke: rgb(255, 255, 255); stroke-opacity: 1; stroke-width: 1px;"/></g></g><g class="zerolinelayer"><path class="xzl zl crisp" transform="translate(80,0)" d="M0,100v320" style="stroke: rgb(255, 255, 255); stroke-opacity: 1; stroke-width: 2px;"/></g><path class="xlines-below"/><path class="ylines-below"/><g class="overlines-below"/><g class="xaxislayer-below"/><g class="yaxislayer-below"/><g class="overaxes-below"/><g class="plot" transform="translate(80, 100)" clip-path="url('#clipdfa56axyplot')"><g class="scatterlayer mlayer"><g class="trace scatter trace870545" style="stroke-miterlimit: 2; opacity: 1;"><g class="fills"/><g class="errorbars"/><g class="lines"><path class="js-line" d="M0,45.33L15.98,43.48L21.31,43.28L37.3,43.89L42.63,44.5L58.61,47.66L63.94,49.22L74.59,53.27L79.92,55.85L90.58,62.56L95.91,66.95L101.23,72.34L106.56,79.16L111.89,88.23L117.22,101.43L122.55,125.07L127.88,199.64L133.2,118.63L138.53,97.34L143.86,84.54L149.19,75.38L154.52,68.29L159.84,62.55L170.5,53.7L175.83,50.23L186.48,44.64L191.81,42.42L202.47,38.94L207.8,37.64L218.45,35.89L223.78,35.44L234.44,35.44L239.77,35.94L250.42,38.15L255.75,40L266.41,45.8L271.73,50.22L277.06,56.27L282.39,64.95L287.72,78.8L293.05,108.33L298.38,126.69L303.7,139.27L309.03,168.23L314.36,167.64L319.69,147.43L325.02,152.38L330.34,220.61L335.67,139.79L341,109.19L346.33,85.5L351.66,65.06L356.98,51.81L362.31,43.18L367.64,36.2L372.97,29.95L378.3,27.07L388.95,38.09L394.28,44.3L404.94,58.57L410.27,66.95L415.59,76.5L420.92,87.63L426.25,101.12L431.58,118.53L436.91,144.29L442.23,211.16L447.56,142.39L452.89,112.3L458.22,99.16L463.55,91.44L468.88,86.49L474.2,83.26L479.53,81.24L484.86,80.12L495.52,80L500.84,80.82L511.5,83.99L516.83,86.32L527.48,92.56L532.81,96.54L543.47,106.61L548.8,112.97L554.13,120.5L559.45,129.57L564.78,140.84L570.11,155.59L575.44,177.05L580.77,220.33L586.09,221.94L591.42,198.28L596.75,197.86L602.08,221.4L607.41,214.84L612.73,171.53L618.06,148.96L623.39,132.91L628.72,120.25L634.05,121.61L639.38,153.65L644.7,175.35L650.03,133.83L655.36,85.25L660.69,55.04L666.02,39.86L671.34,29.7L676.67,22.08L682,16" style="vector-effect: non-scaling-stroke; fill: none; stroke: rgb(99, 110, 250); stroke-opacity: 1; stroke-width: 2px; opacity: 1;"/></g><g class="points"/><g class="text"/></g><g class="trace scatter trace88d7f9" style="stroke-miterlimit: 2; opacity: 1;"><g class="fills"/><g class="errorbars"/><g class="lines"><path class="js-line" d="M0,81.93L10.66,74.3L15.98,71.28L26.64,66.39L31.97,64.4L47.95,59.85L53.28,58.74L69.27,56.4L74.59,55.93L90.58,55.42L95.91,55.54L111.89,56.84L117.22,57.6L133.2,61.05L138.53,62.64L149.19,66.66L154.52,69.18L165.17,75.59L170.5,79.71L175.83,84.69L181.16,90.87L186.48,98.86L191.81,109.93L197.14,127.55L202.47,171.28L207.8,150.26L213.13,119.98L218.45,104.48L223.78,93.98L229.11,86.05L234.44,79.7L245.09,69.95L250.42,66.08L261.08,59.72L266.41,57.08L282.39,50.79L287.72,49.15L303.7,45.31L309.03,44.36L325.02,42.36L330.34,41.97L346.33,41.55L351.66,41.65L372.97,43.24L378.3,43.93L399.61,47.83L404.94,49.09L426.25,55.27L431.58,57.09L452.89,65.44L458.22,67.77L490.19,82.95L495.52,85.5L511.5,92.58L516.83,94.61L527.48,97.95L532.81,99.18L543.47,100.7L548.8,100.99L559.45,100.72L564.78,100.23L586.09,96.87L591.42,95.88L618.06,91.58L623.39,91L639.38,90.06L644.7,90.08L660.69,91.3L666.02,92.18L676.67,94.81L682,96.67" style="vector-effect: non-scaling-stroke; fill: none; stroke: rgb(239, 85, 59); stroke-opacity: 1; stroke-width: 2px; opacity: 1;"/></g><g class="points"/><g class="text"/></g><g class="trace scatter trace0d055a" style="stroke-miterlimit: 2; opacity: 1;"><g class="fills"/><g class="errorbars"/><g class="lines"><path class="js-line" d="M0,65.54L5.33,72.42L10.66,80.79L15.98,91.56L21.31,106.85L26.64,134.47L31.97,176.41L37.3,121.91L42.63,103.55L47.95,92.6L53.28,85L58.61,79.33L63.94,74.93L74.59,68.69L79.92,66.48L90.58,63.41L95.91,62.44L106.56,61.46L111.89,61.41L122.55,62.16L127.88,62.97L138.53,65.49L143.86,67.24L154.52,71.91L159.84,74.94L170.5,82.87L175.83,88.11L181.16,94.63L186.48,103.04L191.81,114.66L197.14,133.08L202.47,179.86L207.8,154.33L213.13,125.66L218.45,111.07L223.78,101.41L229.11,94.33L234.44,88.87L239.77,84.54L250.42,78.27L255.75,76.03L266.41,72.98L271.73,72.07L282.39,71.36L287.72,71.55L298.38,73.04L303.7,74.4L314.36,78.54L319.69,81.49L325.02,85.2L330.34,89.91L335.67,95.99L341,104.19L346.33,116.09L351.66,136.65L356.98,222.57L362.31,140.19L367.64,115.95L372.97,101.96L378.3,92.06L383.63,84.41L394.28,72.97L399.61,68.51L410.27,61.23L415.59,58.23L426.25,53.2L431.58,51.09L447.56,46.12L452.89,44.86L468.88,42.07L474.2,41.46L490.19,40.52L495.52,40.5L511.5,41.33L516.83,41.91L532.81,44.7L538.14,46.01L554.13,51.37L559.45,53.74L570.11,59.65L575.44,63.39L586.09,73.22L591.42,79.97L596.75,88.85L602.08,101.59L607.41,123.72L612.73,304L618.06,122.8L623.39,100.11L628.72,86.72L634.05,77.16L639.38,69.72L644.7,63.61L655.36,53.96L660.69,50.01L671.34,43.29L676.67,40.39L682,37.73" style="vector-effect: non-scaling-stroke; fill: none; stroke: rgb(0, 204, 150); stroke-opacity: 1; stroke-width: 2px; opacity: 1;"/></g><g class="points"/><g class="text"/></g><g class="trace scatter traceec8958" style="stroke-miterlimit: 2; opacity: 1;"><g class="fills"/><g class="errorbars"/><g class="lines"><path class="js-line" d="M0,101.09L5.33,88.23L10.66,84.22L15.98,88.42L21.31,106.05L26.64,188.28L31.97,98.9L37.3,80.87L42.63,75.24L47.95,78.14L53.28,91.21L58.61,132.96L63.94,112.47L69.27,83.97L74.59,71.5L79.92,65L85.25,61.81L90.58,60.79L95.91,61.32L101.23,63.07L106.56,65.83L117.22,74.04L122.55,79.5L127.88,85.96L133.2,93.62L138.53,102.8L143.86,114.07L149.19,128.55L154.52,148.96L159.84,186.59L165.17,205.23L170.5,173.64L175.83,167.6L181.16,173.26L186.48,199.65L191.81,199.55L197.14,157.72L202.47,137.47L207.8,123.83L213.13,113.67L218.45,105.73L223.78,99.39L229.11,94.28L239.77,86.9L245.09,84.37L255.75,81.19L261.08,80.44L271.73,80.41L277.06,81.06L287.72,83.55L293.05,85.31L309.03,92L314.36,94.41L325.02,98.74L330.34,100.35L341,101.74L346.33,101.38L356.98,98.74L362.31,96.7L394.28,83.55L399.61,82.12L410.27,80.41L415.59,80.19L426.25,81.19L431.58,82.49L442.23,86.9L447.56,90.17L452.89,94.28L458.22,99.39L463.55,105.73L468.88,113.67L474.2,123.83L479.53,137.47L484.86,157.72L490.19,199.55L495.52,199.65L500.84,173.26L506.17,167.6L511.5,173.64L516.83,205.23L522.16,186.59L527.48,148.96L532.81,128.55L538.14,114.07L543.47,102.8L548.8,93.62L554.13,85.96L564.78,74.04L570.11,69.5L580.77,63.07L586.09,61.32L591.42,60.79L596.75,61.81L602.08,65L607.41,71.5L612.73,83.97L618.06,112.47L623.39,132.96L628.72,91.21L634.05,78.14L639.38,75.24L644.7,80.87L650.03,98.9L655.36,188.28L660.69,106.05L666.02,88.42L671.34,84.22L676.67,88.23L682,101.09" style="vector-effect: non-scaling-stroke; fill: none; stroke: rgb(171, 99, 250); stroke-opacity: 1; stroke-width: 2px; opacity: 1;"/></g><g class="points"/><g class="text"/></g></g></g><g class="overplot"/><path class="xlines-above crisp" d="M0,0" style="fill: none;"/><path class="ylines-above crisp" d="M0,0" style="fill: none;"/><g class="overlines-above"/><g class="xaxislayer-above"><g class="xtick"><text text-anchor="middle" x="0" y="433" transform="translate(80,0)" style="font-family: 'Open Sans', verdana, arial, sans-serif; font-size: 12px; fill: rgb(42, 63, 95); fill-opacity: 1; white-space: pre;">0</text></g><g class="xtick"><text text-anchor="middle" x="0" y="433" transform="translate(216.4,0)" style="font-family: 'Open Sans', verdana, arial, sans-serif; font-size: 12px; fill: rgb(42, 63, 95); fill-opacity: 1; white-space: pre;">0.2</text></g><g class="xtick"><text text-anchor="middle" x="0" y="433" transform="translate(352.8,0)" style="font-family: 'Open Sans', verdana, arial, sans-serif; font-size: 12px; fill: rgb(42, 63, 95); fill-opacity: 1; white-space: pre;">0.4</text></g><g class="xtick"><text text-anchor="middle" x="0" y="433" transform="translate(489.2,0)" style="font-family: 'Open Sans', verdana, arial, sans-serif; font-size: 12px; fill: rgb(42, 63, 95); fill-opacity: 1; white-space: pre;">0.6</text></g><g class="xtick"><text text-anchor="middle" x="0" y="433" transform="translate(625.6,0)" style="font-family: 'Open Sans', verdana, arial, sans-serif; font-size: 12px; fill: rgb(42, 63, 95); fill-opacity: 1; white-space: pre;">0.8</text></g><g class="xtick"><text text-anchor="middle" x="0" y="433" transform="translate(762,0)" style="font-family: 'Open Sans', verdana, arial, sans-serif; font-size: 12px; fill: rgb(42, 63, 95); fill-opacity: 1; white-space: pre;">1</text></g></g><g class="yaxislayer-above"><g class="ytick"><text text-anchor="end" x="79" y="3.15" transform="translate(0,411.3)" style="font-family: 'Open Sans', verdana, arial, sans-serif; font-size: 9px; fill: rgb(42, 63, 95); fill-opacity: 1; white-space: pre;">5</text></g><g class="ytick"><text text-anchor="end" x="79" y="4.199999999999999" transform="translate(0,388.85)" style="font-family: 'Open Sans', verdana, arial, sans-serif; font-size: 12px; fill: rgb(42, 63, 95); fill-opacity: 1; white-space: pre;">10μ</text></g><g class="ytick"><text text-anchor="end" x="79" y="3.15" transform="translate(0,366.4)" style="font-family: 'Open Sans', verdana, arial, sans-serif; font-size: 9px; fill: rgb(42, 63, 95); fill-opacity: 1; white-space: pre;">2</text></g><g class="ytick"><text text-anchor="end" x="79" y="3.15" transform="translate(0,336.71000000000004)" style="font-family: 'Open Sans', verdana, arial, sans-serif; font-size: 9px; fill: rgb(42, 63, 95); fill-opacity: 1; white-space: pre;">5</text></g><g class="ytick"><text text-anchor="end" x="79" y="4.199999999999999" transform="translate(0,314.26)" style="font-family: 'Open Sans', verdana, arial, sans-serif; font-size: 12px; fill: rgb(42, 63, 95); fill-opacity: 1; white-space: pre;">100μ</text></g><g class="ytick"><text text-anchor="end" x="79" y="3.15" transform="translate(0,291.81)" style="font-family: 'Open Sans', verdana, arial, sans-serif; font-size: 9px; fill: rgb(42, 63, 95); fill-opacity: 1; white-space: pre;">2</text></g><g class="ytick"><text text-anchor="end" x="79" y="3.15" transform="translate(0,262.13)" style="font-family: 'Open Sans', verdana, arial, sans-serif; font-size: 9px; fill: rgb(42, 63, 95); fill-opacity: 1; white-space: pre;">5</text></g><g class="ytick"><text text-anchor="end" x="79" y="4.199999999999999" transform="translate(0,239.67)" style="font-family: 'Open Sans', verdana, arial, sans-serif; font-size: 12px; fill: rgb(42, 63, 95); fill-opacity: 1; white-space: pre;">0.001</text></g><g class="ytick"><text text-anchor="end" x="79" y="3.15" transform="translate(0,217.22)" style="font-family: 'Open Sans', verdana, arial, sans-serif; font-size: 9px; fill: rgb(42, 63, 95); fill-opacity: 1; white-space: pre;">2</text></g><g class="ytick"><text text-anchor="end" x="79" y="3.15" transform="translate(0,187.54000000000002)" style="font-family: 'Open Sans', verdana, arial, sans-serif; font-size: 9px; fill: rgb(42, 63, 95); fill-opacity: 1; white-space: pre;">5</text></g><g class="ytick"><text text-anchor="end" x="79" y="4.199999999999999" transform="translate(0,165.07999999999998)" style="font-family: 'Open Sans', verdana, arial, sans-serif; font-size: 12px; fill: rgb(42, 63, 95); fill-opacity: 1; white-space: pre;">0.01</text></g><g class="ytick"><text text-anchor="end" x="79" y="3.15" transform="translate(0,142.63)" style="font-family: 'Open Sans', verdana, arial, sans-serif; font-size: 9px; fill: rgb(42, 63, 95); fill-opacity: 1; white-space: pre;">2</text></g><g class="ytick"><text text-anchor="end" x="79" y="3.15" transform="translate(0,112.95)" style="font-family: 'Open Sans', verdana, arial, sans-serif; font-size: 9px; fill: rgb(42, 63, 95); fill-opacity: 1; white-space: pre;">5</text></g></g><g class="overaxes-above"/></g></g><g class="polarlayer"/><g class="ternarylayer"/><g class="geolayer"/><g class="funnelarealayer"/><g class="pielayer"/><g class="treemaplayer"/><g class="sunburstlayer"/><g class="glimages"/><defs id="topdefs-dfa56a"><g class="clips"/><clipPath id="legenddfa56a"><rect width="112" height="86" x="0" y="0"/></clipPath></defs><g class="layer-above"><g class="imagelayer"/><g class="shapelayer"/></g><g class="infolayer"><g class="legend" pointer-events="all" transform="translate(775.64, 100)"><rect class="bg" shape-rendering="crispEdges" style="stroke: rgb(68, 68, 68); stroke-opacity: 1; fill: rgb(255, 255, 255); fill-opacity: 1; stroke-width: 0px;" width="112" height="86" x="0" y="0"/><g class="scrollbox" transform="translate(0, 0)" clip-path="url('#legenddfa56a')"><g class="groups"><g class="traces" transform="translate(0, 14.5)" style="opacity: 1;"><text class="legendtext user-select-none" text-anchor="start" x="40" y="4.680000000000001" style="font-family: 'Open Sans', verdana, arial, sans-serif; font-size: 12px; fill: rgb(42, 63, 95); fill-opacity: 1; white-space: pre;">relu DNN</text><g class="layers" style="opacity: 1;"><g class="legendfill"/><g class="legendlines"><path class="js-line" d="M5,0h30" style="fill: none; stroke: rgb(99, 110, 250); stroke-opacity: 1; stroke-width: 2px;"/></g><g class="legendsymbols"><g class="legendpoints"/></g></g><rect class="legendtoggle" pointer-events="all" x="0" y="-9.5" width="106.90625" height="19" style="cursor: pointer; fill: rgb(0, 0, 0); fill-opacity: 0;"/></g><g class="traces" transform="translate(0, 33.5)" style="opacity: 1;"><text class="legendtext user-select-none" text-anchor="start" x="40" y="4.680000000000001" style="font-family: 'Open Sans', verdana, arial, sans-serif; font-size: 12px; fill: rgb(42, 63, 95); fill-opacity: 1; white-space: pre;">concat DNN</text><g class="layers" style="opacity: 1;"><g class="legendfill"/><g class="legendlines"><path class="js-line" d="M5,0h30" style="fill: none; stroke: rgb(239, 85, 59); stroke-opacity: 1; stroke-width: 2px;"/></g><g class="legendsymbols"><g class="legendpoints"/></g></g><rect class="legendtoggle" pointer-events="all" x="0" y="-9.5" width="106.90625" height="19" style="cursor: pointer; fill: rgb(0, 0, 0); fill-opacity: 0;"/></g><g class="traces" transform="translate(0, 52.5)" style="opacity: 1;"><text class="legendtext user-select-none" text-anchor="start" x="40" y="4.680000000000001" style="font-family: 'Open Sans', verdana, arial, sans-serif; font-size: 12px; fill: rgb(42, 63, 95); fill-opacity: 1; white-space: pre;">seq DNN</text><g class="layers" style="opacity: 1;"><g class="legendfill"/><g class="legendlines"><path class="js-line" d="M5,0h30" style="fill: none; stroke: rgb(0, 204, 150); stroke-opacity: 1; stroke-width: 2px;"/></g><g class="legendsymbols"><g class="legendpoints"/></g></g><rect class="legendtoggle" pointer-events="all" x="0" y="-9.5" width="106.90625" height="19" style="cursor: pointer; fill: rgb(0, 0, 0); fill-opacity: 0;"/></g><g class="traces" transform="translate(0, 71.5)" style="opacity: 1;"><text class="legendtext user-select-none" text-anchor="start" x="40" y="4.680000000000001" style="font-family: 'Open Sans', verdana, arial, sans-serif; font-size: 12px; fill: rgb(42, 63, 95); fill-opacity: 1; white-space: pre;">multi X</text><g class="layers" style="opacity: 1;"><g class="legendfill"/><g class="legendlines"><path class="js-line" d="M5,0h30" style="fill: none; stroke: rgb(171, 99, 250); stroke-opacity: 1; stroke-width: 2px;"/></g><g class="legendsymbols"><g class="legendpoints"/></g></g><rect class="legendtoggle" pointer-events="all" x="0" y="-9.5" width="106.90625" height="19" style="cursor: pointer; fill: rgb(0, 0, 0); fill-opacity: 0;"/></g></g></g><rect class="scrollbar" rx="20" ry="3" width="0" height="0" style="fill: rgb(128, 139, 164); fill-opacity: 1;" x="0" y="0"/></g><g class="g-gtitle"/><g class="g-xtitle"/><g class="g-ytitle"/></g></svg>